ffmpeg started on 2016-11-28 at 01:38:46
Report written to "Output/NVENCh264/results/ffmpeg/sintelllhp6000k.log"
Command line:
Tools/ffmpeg/ffmpeg -benchmark -y -i Input/y4m/sintel.y4m -c:v h264_nvenc -preset llhp -b:v 6000k -an Output/NVENCh264/encoded/sintelllhp6000k.mkv
ffmpeg version N-82227-gdb23fde Copyright (c) 2000-2016 the FFmpeg developers
  built with gcc 5.4.0 (Ubuntu 5.4.0-6ubuntu1~16.04.2) 20160609
  configuration: --prefix=/home/jaroslav/ffmpeg_build --pkg-config-flags=--static --extra-cflags=-I/home/jaroslav/ffmpeg_build/include --extra-ldflags=-L/home/jaroslav/ffmpeg_build/lib --bindir=/home/jaroslav/bin --enable-gpl --enable-libass --enable-libfdk-aac --enable-libfreetype --enable-libmp3lame --enable-libopus --enable-libtheora --enable-libvorbis --enable-libvpx --enable-libx264 --enable-libx265 --enable-nvenc --enable-libmfx --enable-libxvid --enable-libgsm --enable-libopencore-amrnb --enable-version3 --enable-nonfree
  libavutil      55. 35.100 / 55. 35.100
  libavcodec     57. 66.101 / 57. 66.101
  libavformat    57. 57.100 / 57. 57.100
  libavdevice    57.  2.100 / 57.  2.100
  libavfilter     6. 66.100 /  6. 66.100
  libswscale      4.  3.100 /  4.  3.100
  libswresample   2.  4.100 /  2.  4.100
  libpostproc    54.  2.100 / 54.  2.100
Input #0, yuv4mpegpipe, from 'Input/y4m/sintel.y4m':
  Duration: 00:00:20.83, start: 0.000000, bitrate: 2057307 kb/s
    Stream #0:0: Video: rawvideo (I420 / 0x30323449), yuv420p(progressive), 4096x1744, SAR 1:1 DAR 256:109, 24 fps, 24 tbr, 24 tbn, 24 tbc
[h264_nvenc @ 0x3f5d1c0] The variable bitrate rate-control requires the 'qmin' and/or 'qmax' option set.
Output #0, matroska, to 'Output/NVENCh264/encoded/sintelllhp6000k.mkv':
  Metadata:
    encoder         : Lavf57.57.100
    Stream #0:0: Video: h264 (h264_nvenc) (Main) (H264 / 0x34363248), yuv420p, 4096x1744 [SAR 1:1 DAR 256:109], q=-1--1, 6000 kb/s, 24 fps, 1k tbn, 24 tbc
    Metadata:
      encoder         : Lavc57.66.101 h264_nvenc
    Side data:
      cpb: bitrate max/min/avg: 0/0/6000000 buffer size: 12000000 vbv_delay: -1
Stream mapping:
  Stream #0:0 -> #0:0 (rawvideo (native) -> h264 (h264_nvenc))
Press [q] to stop, [?] for help
frame=    3 fps=1.0 q=0.0 size=       0kB time=00:00:00.00 bitrate=N/A speed=   0x    frame=   22 fps=6.4 q=0.0 size=       0kB time=00:00:00.00 bitrate=N/A speed=   0x    frame=   43 fps= 11 q=40.0 size=       1kB time=00:00:00.50 bitrate=  11.9kbits/s speed=0.128x    frame=   64 fps= 14 q=40.0 size=       1kB time=00:00:01.37 bitrate=   4.3kbits/s speed=0.31x    frame=   85 fps= 17 q=38.0 size=       1kB time=00:00:02.25 bitrate=   2.7kbits/s speed=0.455x    frame=  106 fps= 19 q=38.0 size=       1kB time=00:00:03.12 bitrate=   1.9kbits/s speed=0.573x    frame=  122 fps= 20 q=36.0 size=       1kB time=00:00:03.79 bitrate=   1.6kbits/s speed=0.626x    frame=  142 fps= 22 q=33.0 size=       1kB time=00:00:04.62 bitrate=   1.3kbits/s speed=0.705x    frame=  163 fps= 23 q=38.0 size=    3371kB time=00:00:05.50 bitrate=5019.6kbits/s speed=0.776x    frame=  184 fps= 24 q=37.0 size=    3371kB time=00:00:06.37 bitrate=4330.7kbits/s speed=0.839x    frame=  185 fps= 21 q=37.0 size=    3371kB time=00:00:06.41 bitrate=4302.4kbits/s speed=0.745x    frame=  186 fps= 16 q=37.0 size=    3371kB time=00:00:06.45 bitrate=4275.1kbits/s speed=0.562x    frame=  206 fps= 17 q=33.0 size=    3371kB time=00:00:07.29 bitrate=3786.2kbits/s speed=0.608x    frame=  227 fps= 18 q=33.0 size=    3371kB time=00:00:08.16 bitrate=3380.6kbits/s speed=0.653x    frame=  248 fps= 19 q=36.0 size=    3371kB time=00:00:09.04 bitrate=3053.5kbits/s speed=0.694x    frame=  269 fps= 20 q=35.0 size=    7067kB time=00:00:09.91 bitrate=5837.3kbits/s speed=0.732x    frame=  290 fps= 21 q=32.0 size=    7067kB time=00:00:10.79 bitrate=5364.1kbits/s speed=0.768x    frame=  311 fps= 21 q=33.0 size=    7945kB time=00:00:11.66 bitrate=5578.2kbits/s speed= 0.8x    frame=  332 fps= 22 q=31.0 size=    7945kB time=00:00:12.54 bitrate=5189.1kbits/s speed=0.831x    frame=  353 fps= 23 q=31.0 size=    7945kB time=00:00:13.41 bitrate=4850.7kbits/s speed=0.86x    frame=  374 fps= 23 q=29.0 size=    7945kB time=00:00:14.29 bitrate=4553.8kbits/s speed=0.887x    frame=  395 fps= 24 q=31.0 size=    7945kB time=00:00:15.16 bitrate=4291.1kbits/s speed=0.912x    frame=  416 fps= 24 q=29.0 size=    7945kB time=00:00:16.04 bitrate=4057.0kbits/s speed=0.935x    frame=  436 fps= 25 q=33.0 size=   11647kB time=00:00:16.87 bitrate=5653.5kbits/s speed=0.956x    frame=  457 fps= 25 q=34.0 size=   12663kB time=00:00:17.75 bitrate=5844.1kbits/s speed=0.977x    frame=  478 fps= 26 q=32.0 size=   12663kB time=00:00:18.62 bitrate=5569.5kbits/s speed=0.997x    frame=  499 fps= 26 q=34.0 size=   12663kB time=00:00:19.50 bitrate=5319.6kbits/s speed=1.02x    frame=  500 fps= 26 q=32.0 Lsize=   15170kB time=00:00:20.79 bitrate=5976.8kbits/s speed=1.08x    
video:15166kB audio:0kB subtitle:0kB other streams:0kB global headers:0kB muxing overhead: 0.031875%
bench: utime=0.888s
bench: maxrss=1190252kB
